<svg id="Capa_1" enable-background="new 0 0 511.647 511.647" height="512" viewBox="0 0 511.647 511.647" width="512" xmlns="http://www.w3.org/2000/svg"><g><path d="m506.522 64.878-59.752-59.752c-3.306-3.305-7.7-5.126-12.374-5.126-4.675 0-9.069 1.821-12.375 5.126l-57.178 57.177c-3.305 3.305-5.125 7.7-5.125 12.374 0 4.675 1.82 9.069 5.125 12.375l3.758 3.758-62.269 62.269c-.091-.015-.179-.037-.27-.05l-46.733-6.822c-4.82-.695-9.747.943-13.183 4.38l-129.531 129.529c-3.437 3.436-5.075 8.364-4.379 13.197l6.82 46.722c.013.091.035.179.05.269l-25.143 25.142c-2.929 2.929-2.929 7.678 0 10.606 1.464 1.465 3.384 2.197 5.303 2.197s3.839-.732 5.303-2.197l23.077-23.077 31.025 31.025-110.462 110.462c-2.928 2.922-7.687 2.926-10.608.004l-20.42-20.42c-2.921-2.921-2.919-7.68 0-10.604l62.64-62.64c2.929-2.929 2.929-7.678 0-10.606-2.929-2.929-7.678-2.929-10.606 0l-62.645 62.645c-8.762 8.777-8.76 23.047.004 31.812l20.42 20.42c4.383 4.383 10.141 6.575 15.903 6.574 5.76 0 11.523-2.191 15.914-6.574l112.532-112.532c.091.015.18.037.271.051l46.735 6.822c.729.105 1.461.157 2.19.157 4.085 0 8.076-1.621 10.991-4.537l94.26-94.25c2.93-2.929 2.93-7.678.001-10.607-2.929-2.928-7.678-2.929-10.606 0l-14.288 14.286-20.739-20.74 17.88-17.88c6.024-6.025 6.04-15.813.053-21.861l41.027-41.035 4.515 4.515c.077.077.127.178.144.292l6.817 46.704c.023.161-.03.329-.141.439l-10.529 10.53c-2.929 2.929-2.929 7.678.001 10.606 2.928 2.93 7.677 2.929 10.606 0l10.528-10.529c3.437-3.436 5.074-8.363 4.379-13.198l-6.82-46.721c-.015-.102-.04-.202-.057-.303l62.256-62.256 3.778 3.778c3.306 3.305 7.7 5.126 12.375 5.126s9.069-1.821 12.375-5.126l57.177-57.177c3.305-3.305 5.125-7.7 5.125-12.375s-1.82-9.069-5.125-12.374zm-249.771 96.315c.109-.109.273-.163.423-.142l46.719 6.819c.114.017.215.066.291.142l4.528 4.528-41.027 41.035c-2.923-2.904-6.798-4.504-10.92-4.504-4.141 0-8.033 1.612-10.96 4.54l-17.88 17.88-20.736-20.736zm-48.626 90.097-20.736-20.736 9.194-9.194 20.736 20.736zm-80.904 39.433 49.562-49.562 20.736 20.736-17.88 17.88c-6.03 6.03-6.04 15.834-.035 21.88l-41.035 41.026-4.528-4.528c-.076-.076-.125-.176-.141-.289l-6.818-46.705c-.024-.16.029-.328.139-.438zm21.954 62.567 41.033-41.025 9.193 9.193-41.032 41.025zm71.748 31.137c-.109.109-.277.162-.422.142l-46.719-6.819c-.114-.017-.215-.066-.292-.143l-4.516-4.516 41.035-41.028c3.014 2.983 6.956 4.478 10.901 4.478 3.969 0 7.938-1.511 10.96-4.532l17.88-17.88 20.738 20.738zm69.367-69.359-9.193 9.193-20.739-20.738 9.194-9.193zm-2.86-59.832-66.165 66.166c-.195.195-.513.195-.708 0l-30.312-30.312c-.195-.195-.195-.513 0-.708l66.167-66.166c.036-.036.146-.146.353-.146s.317.11.353.146l30.312 30.312c.196.196.196.514 0 .708zm.057-21.863-9.194-9.193 41.025-41.033 9.194 9.194zm62.521-40.751-31.003-31.003 60.203-60.203 31.003 31.003zm145.907-113.602-57.177 57.177c-.637.637-1.381.732-1.768.732s-1.131-.095-1.768-.732l-59.752-59.752c-.638-.637-.732-1.381-.732-1.768 0-.386.095-1.13.732-1.768l57.178-57.177c.637-.637 1.381-.732 1.768-.732.386 0 1.13.095 1.767.732l59.753 59.752c.637.637.731 1.38.731 1.767s-.095 1.132-.732 1.769z"/><path d="m442.528 36.239c-2.172-2.173-5.06-3.369-8.132-3.369-3.071 0-5.959 1.196-8.133 3.368l-30.306 30.307c-2.173 2.172-3.369 5.061-3.369 8.133s1.196 5.96 3.368 8.131l32.882 32.881v.001c2.172 2.172 5.06 3.368 8.132 3.368s5.96-1.196 8.132-3.368l30.307-30.307c2.173-2.172 3.369-5.061 3.369-8.132 0-3.072-1.196-5.96-3.368-8.132zm-8.132 13.08 8.663 8.663-25.358 25.358-8.662-8.662zm2.574 53.29-8.662-8.663 25.358-25.357 8.662 8.662z"/><path d="m80.803 431.602.707.707c1.464 1.464 3.384 2.197 5.303 2.197s3.839-.732 5.303-2.197c2.929-2.929 2.929-7.678 0-10.606l-.707-.707c-2.929-2.929-7.678-2.929-10.606 0-2.929 2.928-2.929 7.677 0 10.606z"/><path d="m59.59 442.209c-2.929 2.929-2.929 7.678 0 10.606l.707.707c1.464 1.464 3.384 2.197 5.303 2.197s3.839-.732 5.303-2.197c2.929-2.929 2.929-7.678 0-10.606l-.707-.707c-2.928-2.929-7.677-2.929-10.606 0z"/><path d="m37.998 463.043c-2.929 2.929-2.929 7.678 0 10.606l.707.707c1.464 1.464 3.384 2.197 5.303 2.197s3.839-.732 5.303-2.197c2.929-2.929 2.929-7.678 0-10.606l-.707-.707c-2.929-2.928-7.678-2.928-10.606 0z"/></g></svg>